<?xml version="1.0" encoding="utf-8"?>
<svg id="master-artboard" viewBox="0 0 846.1 869.7" version="1.1" xmlns="http://www.w3.org/2000/svg" x="0px" y="0px" style="enable-background:new 0 0 846.1 869.7;" width="846.0999755859375px" height="869.7000122070312px">
  <defs>
    <!-- Puedes eliminar el gradiente o dejarlo comentado -->
    <!--
    <radialGradient id="gradient-0" gradientUnits="objectBoundingBox" cx="0.5" cy="0.5" r="0.5" gradientTransform="matrix(2.09698265913174, -0.004642542379865944, 0.004181040882983211, 1.787624060303262, -0.5505818502617146, -0.39149079155695965)">
      <stop offset="0" style="stop-color: #ffffff"/>
      <stop offset="1" style="stop-color: #cccccc"/>
    </radialGradient>
    -->
  </defs>
  <!-- Cambiar el rectángulo de fondo para usar un color sólido en lugar de un gradiente -->
  <rect id="ee-background" x="0" y="0" width="846.0999755859375" height="869.7000122070312" style="fill: #ffffff; fill-opacity: 1; pointer-events: none;"/>
  
  <path class="st5" d="M 600.8 394.7 C 584.0999999999999 398.5 568.5 429.2 542.6999999999999 456.7 L 542.6999999999999 398.59999999999997 L 542.6999999999999 369.79999999999995 L 542.6999999999999 211.5 C 542.6999999999999 198.1 531.8 187.2 518.4 187.2 L 515.6999999999999 187.2 C 502.29999999999995 187.2 491.3999999999999 198.1 491.3999999999999 211.5 L 491.0952819824218 370.71412353515626 L 480.99999999999994 369.8 L 480.99999999999994 160.5 C 480.99999999999994 147.1 470.09999999999997 136.2 456.69999999999993 136.2 L 453.99999999999994 136.2 C 440.59999999999997 136.2 429.69999999999993 147.1 429.69999999999993 160.5 L 429.69999999999993 375.5893981933594 L 421.90471801757803 376.5392272949219 L 421.5999999999999 192.1 C 421.5999999999999 178.7 410.69999999999993 167.79999999999998 397.19999999999993 167.79999999999998 L 394.49999999999994 167.79999999999998 C 381.09999999999997 167.79999999999998 370.19999999999993 178.7 370.19999999999993 192.1 L 370.50468749999993 389.9105041503906 L 364.20940551757803 390.82462768554683 L 363.5999999999999 239.79999999999995 C 363.5999999999999 226.39999999999995 352.69999999999993 215.49999999999994 339.2999999999999 215.49999999999994 L 336.5999999999999 215.49999999999994 C 323.19999999999993 215.49999999999994 312.2999999999999 226.39999999999995 312.2999999999999 239.79999999999995 L 312.2999999999999 369.79999999999995 L 312 369.79999999999995 L 312 542.5 C 312 542.5 312 645.4 427.4 645.4 C 499.4 645.4 529.8 611.8 539.3 588.9 C 539.4 588.8 610.9 463.9 625.8 435.2 C 640.7 406.3 622.4 389.7 600.8 394.7 Z" style="fill: rgb(38, 38, 38);" transform="matrix(1.2674051523208618, 0, 0, 1.2674051523208618, -153.31993103027344, -57.254132499850925)"/>
  <path d="M 318.4815673828125 479.61920166015625" style="fill: rgb(38, 38, 38); fill-opacity: 1; stroke: rgb(0, 0, 0); stroke-opacity: 1; stroke-width: 0; paint-order: fill;"/>
  <path d="M 600.0098876953125 375.73565673828125" style="fill: rgb(38, 38, 38); fill-opacity: 1; stroke: rgb(0, 0, 0); stroke-opacity: 1; stroke-width: 0; paint-order: fill;"/>
</svg>
